<svg id="SvgjsSvg1011" width="288" height="288" xmlns="http://www.w3.org/2000/svg" version="1.1" xmlns:xlink="http://www.w3.org/1999/xlink" xmlns:svgjs="http://svgjs.com/svgjs"><defs id="SvgjsDefs1012"></defs><g id="SvgjsG1013" transform="matrix(1,0,0,1,0,0)"><svg xmlns="http://www.w3.org/2000/svg" viewBox="0 0 24 24" width="288" height="288"><path d="M11.293,22.707a1,1,0,0,0,.325.216.986.986,0,0,0,.764,0,1,1,0,0,0,.325-.216l8-8a1,1,0,0,0-1.414-1.414L13,19.586V2a1,1,0,0,0-2,0V19.586L4.707,13.293a1,1,0,0,0-1.414,1.414Z" fill="#00b140" class="color000 svgShape"></path></svg></g></svg>